<svg width="256" height="256" viewBox="0 0 256 256" fill="none" xmlns="http://www.w3.org/2000/svg">
<g clip-path="url(#clip0_111_2169)">
<rect width="256" height="256" fill="#475569"/>
<path d="M28.1659 132.749L22.4553 135.658C22.1741 135.206 21.8477 134.833 21.4761 134.537C21.1113 134.239 20.7066 134.028 20.2618 133.906C19.8203 133.774 19.3491 133.742 18.8482 133.81C18.3439 133.872 17.8217 134.04 17.2817 134.315C16.3367 134.797 15.6537 135.434 15.2329 136.226C14.8187 137.015 14.6613 137.925 14.7606 138.954C14.8666 139.98 15.2258 141.093 15.838 142.295C16.4846 143.564 17.195 144.541 17.9693 145.226C18.7469 145.901 19.5698 146.29 20.4379 146.392C21.3026 146.487 22.1905 146.302 23.1018 145.838C23.6215 145.573 24.0546 145.272 24.401 144.934C24.744 144.589 25.0037 144.214 25.1802 143.81C25.3567 143.405 25.4501 142.979 25.4602 142.532C25.4737 142.074 25.4007 141.606 25.2412 141.126L30.9723 138.257C31.352 139.168 31.5613 140.188 31.6003 141.316C31.636 142.437 31.4583 143.582 31.0674 144.751C30.6798 145.909 30.0309 147.013 29.1207 148.064C28.2105 149.114 26.996 150.026 25.4772 150.8C23.5737 151.77 21.6579 152.232 19.7297 152.186C17.8083 152.136 16.0047 151.541 14.319 150.402C12.64 149.26 11.2158 147.541 10.0464 145.246C8.87017 142.937 8.32515 140.766 8.41135 138.733C8.49412 136.693 9.08515 134.882 10.1844 133.302C11.2803 131.715 12.7597 130.446 14.6227 129.497C15.9322 128.83 17.2283 128.395 18.5108 128.192C19.7934 127.989 21.0252 128.02 22.2062 128.286C23.3839 128.545 24.4803 129.045 25.4956 129.786C26.5109 130.527 27.4009 131.514 28.1659 132.749ZM37.3234 144.407L26.7578 123.671L32.3874 120.803L36.5145 128.903L43.9666 125.106L39.8394 117.006L45.4689 114.137L56.0345 134.873L50.405 137.742L46.2778 129.642L38.8258 133.439L42.9529 141.539L37.3234 144.407ZM64.0941 130.767L58.0191 133.862L54.298 109.639L61.9931 105.718L79.4032 122.967L73.3282 126.062L61.1362 113.348L60.9742 113.43L64.0941 130.767ZM58.7916 123.164L70.2127 117.344L72.3589 121.556L60.9378 127.376L58.7916 123.164ZM69.9617 107.371L67.6505 102.835L85.6731 93.6523L87.9843 98.1883L81.7473 101.366L90.0016 117.566L84.4531 120.393L76.1987 104.193L69.9617 107.371ZM98.3574 113.309L87.7918 92.5728L102.736 84.9581L105.048 89.4941L95.7325 94.2404L97.5485 97.8044L106.094 93.4502L108.405 97.9863L99.8597 102.34L101.676 105.904L110.95 101.179L113.261 105.715L98.3574 113.309ZM105.528 83.5355L112.535 79.9655L123.339 89.2549L123.582 89.1311L122.417 74.9303L129.424 71.3603L139.989 92.0965L134.481 94.9029L128.373 82.9149L128.211 82.9974L129.62 97.176L126.298 98.8681L115.614 89.3135L115.452 89.3961L121.602 101.465L116.094 104.272L105.528 83.5355ZM157.462 70.1336C158.639 72.4421 159.182 74.6182 159.093 76.6619C159 78.6988 158.398 80.5143 157.289 82.1084C156.176 83.6957 154.682 84.9674 152.805 85.9235C150.915 86.8865 148.999 87.3483 147.058 87.3088C145.119 87.2591 143.299 86.6733 141.596 85.5512C139.897 84.4189 138.463 82.7053 137.293 80.4103C136.117 78.1017 135.572 75.9307 135.658 73.8972C135.748 71.8535 136.346 70.0398 137.452 68.4559C138.561 66.8619 140.061 65.5834 141.951 64.6203C143.827 63.6642 145.736 63.2059 147.678 63.2453C149.616 63.2781 151.438 63.8588 153.144 64.9877C154.847 66.1098 156.286 67.8251 157.462 70.1336ZM151.671 73.0845C151.038 71.8425 150.34 70.8805 149.575 70.1985C148.815 69.5064 148.002 69.1043 147.137 68.9922C146.276 68.87 145.379 69.0462 144.448 69.5209C143.516 69.9955 142.843 70.6189 142.429 71.3912C142.018 72.1532 141.866 73.0471 141.972 74.0729C142.081 75.0885 142.452 76.2173 143.085 77.4593C143.718 78.7013 144.414 79.6684 145.175 80.3606C145.939 81.0426 146.752 81.4447 147.614 81.5669C148.478 81.6789 149.377 81.4976 150.308 81.023C151.24 80.5483 151.911 79.93 152.322 79.1679C152.736 78.3957 152.889 77.5018 152.779 76.4862C152.673 75.4604 152.304 74.3265 151.671 73.0845Z" fill="#818CF8"/>
<path d="M104.484 209.556L99.9278 211.878L97.137 193.71L102.908 190.77L115.966 203.706L111.41 206.028L102.266 196.492L102.144 196.554L104.484 209.556ZM100.507 203.854L109.073 199.489L110.683 202.648L102.117 207.013L100.507 203.854ZM113.762 185.239L121.686 200.792L117.464 202.943L109.54 187.391L113.762 185.239ZM130.883 182.638C130.584 182.152 130.193 181.854 129.71 181.743C129.231 181.63 128.65 181.747 127.967 182.096C127.531 182.318 127.201 182.553 126.977 182.801C126.755 183.041 126.624 183.284 126.582 183.528C126.541 183.772 126.576 184.009 126.687 184.24C126.772 184.432 126.892 184.585 127.045 184.698C127.201 184.804 127.396 184.874 127.63 184.907C127.861 184.936 128.135 184.93 128.453 184.89C128.77 184.849 129.133 184.773 129.541 184.66L130.956 184.284C131.91 184.027 132.769 183.893 133.534 183.879C134.298 183.866 134.979 183.962 135.575 184.169C136.169 184.37 136.684 184.675 137.122 185.083C137.564 185.489 137.939 185.987 138.246 186.576C138.762 187.602 138.948 188.597 138.802 189.564C138.657 190.531 138.208 191.439 137.455 192.288C136.706 193.135 135.674 193.894 134.358 194.564C133.006 195.253 131.725 195.654 130.514 195.768C129.307 195.878 128.214 195.661 127.234 195.114C126.257 194.56 125.434 193.634 124.766 192.335L128.776 190.292C129.044 190.755 129.366 191.094 129.744 191.31C130.122 191.526 130.546 191.619 131.015 191.59C131.49 191.559 131.996 191.406 132.533 191.133C132.983 190.903 133.332 190.655 133.579 190.389C133.826 190.123 133.978 189.851 134.034 189.574C134.091 189.296 134.057 189.03 133.933 188.774C133.807 188.539 133.622 188.371 133.38 188.271C133.14 188.164 132.815 188.126 132.403 188.157C131.99 188.183 131.462 188.279 130.82 188.447L129.101 188.902C127.571 189.305 126.232 189.36 125.081 189.066C123.932 188.765 123.051 188.005 122.437 186.788C121.929 185.803 121.753 184.806 121.908 183.796C122.065 182.778 122.511 181.821 123.247 180.923C123.987 180.023 124.972 179.26 126.202 178.633C127.458 177.993 128.651 177.65 129.781 177.603C130.911 177.557 131.919 177.789 132.805 178.301C133.693 178.805 134.399 179.564 134.923 180.579L130.883 182.638ZM153.293 174.892C154.175 176.623 154.583 178.255 154.516 179.788C154.446 181.316 153.995 182.678 153.163 183.873C152.329 185.064 151.208 186.017 149.8 186.734C148.383 187.457 146.946 187.803 145.49 187.773C144.036 187.736 142.67 187.297 141.394 186.455C140.119 185.606 139.043 184.321 138.166 182.6C137.284 180.868 136.875 179.24 136.94 177.715C137.007 176.182 137.456 174.822 138.285 173.634C139.117 172.438 140.242 171.479 141.659 170.757C143.067 170.04 144.499 169.696 145.955 169.726C147.408 169.75 148.775 170.186 150.055 171.033C151.331 171.874 152.411 173.161 153.293 174.892ZM148.95 177.105C148.475 176.174 147.951 175.452 147.378 174.941C146.807 174.422 146.198 174.12 145.549 174.036C144.903 173.944 144.231 174.077 143.532 174.432C142.833 174.788 142.329 175.256 142.018 175.835C141.71 176.407 141.596 177.077 141.675 177.847C141.757 178.608 142.035 179.455 142.51 180.386C142.985 181.318 143.507 182.043 144.078 182.562C144.651 183.074 145.261 183.375 145.907 183.467C146.555 183.551 147.229 183.415 147.928 183.059C148.626 182.703 149.13 182.239 149.438 181.668C149.748 181.089 149.863 180.418 149.781 179.656C149.701 178.887 149.424 178.037 148.95 177.105ZM159.209 181.673L151.285 166.121L155.507 163.969L161.698 176.119L167.985 172.916L169.719 176.318L159.209 181.673ZM172.705 155.206L176.927 153.055L182.003 163.018C182.607 164.203 182.846 165.372 182.72 166.527C182.597 167.674 182.151 168.74 181.384 169.724C180.613 170.703 179.563 171.531 178.231 172.21C176.89 172.893 175.596 173.259 174.352 173.307C173.104 173.349 171.98 173.083 170.98 172.509C169.982 171.927 169.181 171.044 168.578 169.859L163.501 159.896L167.723 157.745L172.614 167.343C172.859 167.824 173.185 168.2 173.591 168.472C173.994 168.738 174.437 168.882 174.92 168.904C175.408 168.923 175.893 168.81 176.374 168.565C176.86 168.317 177.236 167.992 177.502 167.588C177.769 167.185 177.913 166.741 177.934 166.258C177.954 165.77 177.841 165.286 177.596 164.805L172.705 155.206ZM180.242 155.651L178.508 152.249L192.025 145.362L193.759 148.764L189.081 151.148L195.272 163.298L191.11 165.418L184.92 153.268L180.242 155.651ZM197.837 142.401L205.761 157.953L201.539 160.105L193.614 144.552L197.837 142.401ZM218.866 141.481C219.748 143.213 220.155 144.845 220.088 146.377C220.019 147.905 219.568 149.267 218.736 150.462C217.901 151.653 216.78 152.606 215.373 153.324C213.955 154.046 212.518 154.392 211.062 154.363C209.608 154.325 208.243 153.886 206.966 153.044C205.692 152.195 204.616 150.91 203.739 149.189C202.857 147.457 202.448 145.829 202.513 144.304C202.58 142.771 203.028 141.411 203.858 140.223C204.69 139.027 205.814 138.068 207.232 137.346C208.639 136.629 210.071 136.285 211.527 136.315C212.981 136.34 214.348 136.775 215.627 137.622C216.904 138.463 217.984 139.75 218.866 141.481ZM214.522 143.694C214.047 142.763 213.524 142.041 212.951 141.53C212.38 141.011 211.77 140.709 211.122 140.625C210.476 140.533 209.803 140.666 209.105 141.022C208.406 141.378 207.901 141.845 207.591 142.424C207.282 142.996 207.168 143.666 207.248 144.436C207.33 145.197 207.608 146.044 208.083 146.975C208.557 147.907 209.08 148.632 209.65 149.151C210.223 149.663 210.833 149.964 211.479 150.056C212.128 150.14 212.801 150.004 213.5 149.648C214.199 149.292 214.702 148.828 215.01 148.257C215.321 147.678 215.435 147.007 215.353 146.246C215.274 145.476 214.997 144.626 214.522 143.694ZM230.313 125.853L238.238 141.406L234.714 143.201L224.931 137.893L224.84 137.94L229.003 146.111L224.781 148.262L216.857 132.71L220.441 130.883L230.118 136.207L230.239 136.145L226.091 128.005L230.313 125.853ZM113.61 237.454L105.686 221.902L116.621 216.33L118.354 219.732L111.641 223.153L113.003 225.826L119.048 222.746L120.781 226.148L114.737 229.228L117.832 235.303L113.61 237.454ZM137.202 215.638C138.084 217.37 138.492 219.002 138.424 220.535C138.355 222.062 137.904 223.424 137.072 224.619C136.237 225.81 135.116 226.764 133.709 227.481C132.291 228.203 130.855 228.549 129.398 228.52C127.945 228.483 126.579 228.043 125.302 227.202C124.028 226.352 122.952 225.067 122.075 223.346C121.193 221.615 120.784 219.986 120.849 218.461C120.916 216.928 121.364 215.568 122.194 214.38C123.026 213.185 124.151 212.226 125.568 211.503C126.975 210.786 128.407 210.443 129.864 210.472C131.317 210.497 132.684 210.932 133.963 211.779C135.24 212.621 136.32 213.907 137.202 215.638ZM132.858 217.852C132.384 216.92 131.86 216.199 131.287 215.687C130.716 215.168 130.106 214.866 129.458 214.782C128.812 214.691 128.139 214.823 127.441 215.179C126.742 215.535 126.237 216.002 125.927 216.582C125.619 217.153 125.504 217.824 125.584 218.593C125.666 219.355 125.944 220.201 126.419 221.133C126.893 222.064 127.416 222.79 127.987 223.309C128.56 223.82 129.169 224.122 129.815 224.213C130.464 224.297 131.138 224.161 131.836 223.805C132.535 223.449 133.038 222.986 133.346 222.414C133.657 221.835 133.772 221.165 133.689 220.403C133.61 219.634 133.333 218.783 132.858 217.852ZM143.118 222.419L135.193 206.867L141.906 203.447C143.061 202.858 144.178 202.554 145.257 202.533C146.337 202.512 147.319 202.774 148.202 203.319C149.085 203.863 149.808 204.688 150.371 205.791C150.938 206.905 151.168 207.97 151.062 208.988C150.96 210.002 150.563 210.932 149.871 211.775C149.184 212.617 148.248 213.339 147.063 213.943L143.053 215.986L141.382 212.705L144.541 211.095C145.037 210.843 145.429 210.567 145.716 210.267C146.006 209.96 146.175 209.622 146.223 209.253C146.276 208.882 146.191 208.476 145.966 208.035C145.739 207.59 145.459 207.277 145.124 207.097C144.792 206.908 144.416 206.839 143.994 206.888C143.575 206.929 143.118 207.076 142.622 207.329L141.133 208.087L147.34 220.268L143.118 222.419ZM148.593 210.638L156.118 215.795L151.531 218.132L144.097 212.928L148.593 210.638ZM155.046 201.037L153.312 197.635L166.829 190.748L168.563 194.15L163.885 196.533L170.076 208.683L165.914 210.804L159.723 198.654L155.046 201.037ZM176.342 205.49L168.418 189.938L179.627 184.227L181.36 187.629L174.374 191.189L175.736 193.862L182.145 190.596L183.878 193.998L177.469 197.264L178.831 199.937L185.787 196.393L187.52 199.795L176.342 205.49ZM193.685 196.654L189.128 198.975L186.338 180.808L192.109 177.867L205.167 190.804L200.61 193.125L191.466 183.589L191.345 183.651L193.685 196.654ZM189.708 190.951L198.274 186.587L199.883 189.746L191.317 194.11L189.708 190.951ZM198.74 174.488L203.995 171.811L212.098 178.778L212.28 178.685L211.407 168.034L216.662 165.357L224.586 180.909L220.455 183.014L215.874 174.023L215.752 174.085L216.809 184.719L214.318 185.988L206.305 178.822L206.183 178.884L210.795 187.935L206.664 190.04L198.74 174.488Z" fill="#2DD4BF"/>
</g>
<defs>
<clipPath id="clip0_111_2169">
<rect width="256" height="256" fill="white"/>
</clipPath>
</defs>
</svg>
